<?xml version="1.0" encoding="utf-8"?>
<!-- Generator: Adobe Illustrator 22.0.0, SVG Export Plug-In . SVG Version: 6.00 Build 0)  -->
<svg version="1.1" id="Слой_1" xmlns="http://www.w3.org/2000/svg" xmlns:xlink="http://www.w3.org/1999/xlink" x="0px" y="0px"
	 viewBox="0 0 100 100" style="enable-background:new 0 0 100 100;" xml:space="preserve">
<style type="text/css">
	.st0{fill:url(#SVGID_1_);}
	.st1{fill:url(#SVGID_2_);}
	.st2{fill:#C1D6E3;}
	.st3{fill:url(#SVGID_3_);}
	.st4{fill:url(#SVGID_4_);}
	.st5{fill:url(#SVGID_5_);}
	.st6{fill:url(#SVGID_6_);}
	.st7{fill:url(#SVGID_7_);}
	.st8{fill:url(#SVGID_8_);}
	.st9{fill:url(#SVGID_9_);}
	.st10{fill:url(#SVGID_10_);}
</style>
<g>
	<g>
		
			<linearGradient id="SVGID_1_" gradientUnits="userSpaceOnUse" x1="45.968" y1="45.9262" x2="46.3864" y2="27.307" gradientTransform="matrix(1 0 0 -1 0 100)">
			<stop  offset="0" style="stop-color:#DFF5FB"/>
			<stop  offset="0.2502" style="stop-color:#D3EEF6"/>
			<stop  offset="1" style="stop-color:#AED8E6"/>
		</linearGradient>
		<rect x="15.3" y="37.5" class="st0" width="61.6" height="44.9"/>
		
			<linearGradient id="SVGID_2_" gradientUnits="userSpaceOnUse" x1="48.1112" y1="70.9352" x2="44.7639" y2="52.9436" gradientTransform="matrix(1 0 0 -1 0 100)">
			<stop  offset="0" style="stop-color:#DFF5FB"/>
			<stop  offset="0.2502" style="stop-color:#D3EEF6"/>
			<stop  offset="1" style="stop-color:#AED8E6"/>
		</linearGradient>
		<rect x="12.3" y="34.5" class="st1" width="67.2" height="12.9"/>
		<path class="st2" d="M15.3,47.4H77v7.4c0,0-30.8-10-61.6,0v-7.4H15.3z"/>
		
			<linearGradient id="SVGID_3_" gradientUnits="userSpaceOnUse" x1="39.2482" y1="50.6543" x2="52.0795" y2="66.9722" gradientTransform="matrix(1 0 0 -1 0 100)">
			<stop  offset="0" style="stop-color:#1570A3"/>
			<stop  offset="1" style="stop-color:#B9D7E4"/>
		</linearGradient>
		<rect x="42.5" y="34.5" class="st3" width="6.7" height="12.9"/>
		
			<linearGradient id="SVGID_4_" gradientUnits="userSpaceOnUse" x1="43.6233" y1="28.1417" x2="51.2166" y2="51.8707" gradientTransform="matrix(1 0 0 -1 0 100)">
			<stop  offset="0" style="stop-color:#1570A3"/>
			<stop  offset="1" style="stop-color:#B9D7E4"/>
		</linearGradient>
		<rect x="42.5" y="47.4" class="st4" width="6.7" height="35"/>
		
			<linearGradient id="SVGID_5_" gradientUnits="userSpaceOnUse" x1="78.8258" y1="53.3" x2="88.6996" y2="53.3" gradientTransform="matrix(1 0 0 1 0 2)">
			<stop  offset="0" style="stop-color:#F28B6C"/>
			<stop  offset="1" style="stop-color:#C7586B"/>
		</linearGradient>
		<path class="st5" d="M88.7,55.3L88.7,55.3C88.6,55.3,88.6,55.3,88.7,55.3c-2.8,0-4.9-2.2-4.9-4.8v-0.1l0,0l0,0
			c0,2.7-2.2,4.9-4.9,4.9c2.7,0,4.9,2.2,4.9,4.9l0,0l0,0C83.8,57.6,86,55.3,88.7,55.3z"/>
		
			<linearGradient id="SVGID_6_" gradientUnits="userSpaceOnUse" x1="73.7967" y1="63.1" x2="79.7145" y2="63.1" gradientTransform="matrix(1 0 0 1 0 2)">
			<stop  offset="0" style="stop-color:#F28B6C"/>
			<stop  offset="1" style="stop-color:#C7586B"/>
		</linearGradient>
		<path class="st6" d="M79.7,65.1L79.7,65.1C79.7,65.1,79.6,65.1,79.7,65.1c-1.7,0-3-1.3-3-3l0,0l0,0l0,0c0,1.6-1.3,3-3,3
			c1.6,0,3,1.3,3,3l0,0l0,0C76.8,66.5,78,65.1,79.7,65.1z"/>
		
			<linearGradient id="SVGID_7_" gradientUnits="userSpaceOnUse" x1="69.2267" y1="44.2" x2="84.2785" y2="44.2" gradientTransform="matrix(1 0 0 1 0 2)">
			<stop  offset="0" style="stop-color:#F28B6C"/>
			<stop  offset="1" style="stop-color:#C7586B"/>
		</linearGradient>
		<path class="st7" d="M84.3,46.1L84.3,46.1L84.3,46.1c-4.3,0-7.5-3.4-7.5-7.4v-0.1l0,0c0,0,0,0,0,0.1c0,4.2-3.4,7.5-7.5,7.5
			c4.2,0,7.5,3.4,7.5,7.5c0,0,0,0,0,0.1l0,0C76.8,49.5,80.1,46.1,84.3,46.1z"/>
	</g>
	
		<linearGradient id="SVGID_8_" gradientUnits="userSpaceOnUse" x1="33.483" y1="75.6857" x2="51.983" y2="74.6857" gradientTransform="matrix(1 0 0 -1 0 100)">
		<stop  offset="0" style="stop-color:#1570A3"/>
		<stop  offset="1" style="stop-color:#B9D7E4"/>
	</linearGradient>
	<path class="st8" d="M47.1,30.1c0.1-0.6,0.1-1.2,0.3-1.8c1.5-3.6,3.5-6.9,7-9c2.1-1.3,4.4-2.1,6.9-1.7c2.7,0.4,4.9,2.2,5.3,4.5
		c0.4,2-0.4,3.8-1.7,5.2c-1.9,2.1-4.3,3.5-6.9,4.5c-1.7,0.7-3.5,1.2-5.2,1.7c-0.1,0-0.3,0.1-0.4,0.1c-0.4-0.1-0.9-0.3-1.3-0.5
		c0.2-0.4,0.4-0.9,0.7-1.1c1.3-1,2.7-1.8,4.1-2.8c0.5-0.4,0.9-0.9,1.2-1.4c0.8-1.2,0.2-2.4-1.3-2.4c-1.6,0-3.1,0.4-4.3,1.5
		c-0.9,0.8-1.7,1.7-2.5,2.4c-0.5,0.4-1,0.7-1.5,1C47.4,30.3,47.2,30.2,47.1,30.1z"/>
	
		<linearGradient id="SVGID_9_" gradientUnits="userSpaceOnUse" x1="33.4122" y1="74.3749" x2="51.9122" y2="73.3749" gradientTransform="matrix(1 0 0 -1 0 100)">
		<stop  offset="0" style="stop-color:#1570A3"/>
		<stop  offset="1" style="stop-color:#B9D7E4"/>
	</linearGradient>
	<path class="st9" d="M44.1,30.4c-0.5-0.4-1.1-0.8-1.5-1.2c-1.5-1.7-3-3.2-5.3-3.7c-0.5-0.1-1.1-0.1-1.7,0c-1.4,0.3-1.9,1.5-1,2.6
		c1.3,1.5,2.8,2.8,4.5,3.7c0.4,0.2,0.8,0.3,1.1,0.6c0.2,0.2,0.3,0.7,0.2,1c-0.1,0.2-0.6,0.4-0.8,0.4c-4.7-1.1-9.2-2.5-12.7-6.1
		c-0.4-0.4-0.7-0.8-1-1.2c-2.2-3-1-6.9,2.5-8.2c3.2-1.2,6.1-0.5,8.9,1.2c1.8,1.1,3.2,2.7,4.3,4.5c0.9,1.5,1.8,3.1,2.6,4.7
		c0.2,0.5,0.2,1.1,0.2,1.7C44.4,30.2,44.3,30.3,44.1,30.4z"/>
	
		<linearGradient id="SVGID_10_" gradientUnits="userSpaceOnUse" x1="33.0716" y1="68.0738" x2="51.5716" y2="67.0738" gradientTransform="matrix(1 0 0 -1 0 100)">
		<stop  offset="0" style="stop-color:#1570A3"/>
		<stop  offset="1" style="stop-color:#B9D7E4"/>
	</linearGradient>
	<path class="st10" d="M48.8,33.9c-1.9,0-3.9,0-5.8,0c0-1.5,1.2-2.7,2.8-2.7C47.5,31.1,48.8,32.2,48.8,33.9z"/>
</g>
</svg>
